<mxfile host="app.diagrams.net" agent="Mozilla/5.0 (Windows NT 10.0; Win64; x64) AppleWebKit/537.36 (KHTML, like Gecko) Chrome/117.0.0.0 Safari/537.36" version="28.0.9">
  <diagram id="WaGvc5aDVcwJ2O8X9qRp" name="PÃ¡gina-1">
    <mxGraphModel dx="772" dy="494" grid="1" gridSize="10" guides="1" tooltips="1" connect="1" arrows="1" fold="1" page="1" pageScale="1" pageWidth="827" pageHeight="1169" math="0" shadow="0">
      <root>
        <mxCell id="0" />
        <mxCell id="1" parent="0" />
        <mxCell id="arvUL8lsrQ8Z9jREooVD-17" value="" style="rounded=1;whiteSpace=wrap;html=1;fontFamily=Times New Roman;fontSize=28;strokeWidth=2;rotation=-38;fillColor=#757575;gradientColor=#ffffff;gradientDirection=radial;strokeColor=#8F8F8F;shadow=1;glass=0;" parent="1" vertex="1">
          <mxGeometry x="400" y="425" width="200" height="20" as="geometry" />
        </mxCell>
        <mxCell id="a0kRVQ_6KHBx3ldC4yZE-3" style="edgeStyle=orthogonalEdgeStyle;rounded=0;orthogonalLoop=1;jettySize=auto;html=1;exitX=1;exitY=0.645;exitDx=0;exitDy=0;exitPerimeter=0;fontSize=45;" parent="1" source="EwHTVLRrVT_rf0cmMfTu-11" edge="1">
          <mxGeometry relative="1" as="geometry">
            <mxPoint x="398.2413793103449" y="654.7241379310345" as="targetPoint" />
          </mxGeometry>
        </mxCell>
        <mxCell id="EwHTVLRrVT_rf0cmMfTu-11" value="" style="pointerEvents=1;verticalLabelPosition=bottom;shadow=0;dashed=0;align=center;html=1;verticalAlign=top;shape=mxgraph.electrical.inductors.inductor_5;strokeWidth=3;rotation=-90;" parent="1" vertex="1">
          <mxGeometry x="324" y="710" width="140" height="30" as="geometry" />
        </mxCell>
        <mxCell id="EwHTVLRrVT_rf0cmMfTu-35" value="" style="endArrow=none;html=1;strokeWidth=3;exitX=1;exitY=0.5;exitDx=0;exitDy=0;entryX=1;entryY=0.645;entryDx=0;entryDy=0;entryPerimeter=0;" parent="1" source="EwHTVLRrVT_rf0cmMfTu-27" target="EwHTVLRrVT_rf0cmMfTu-11" edge="1">
          <mxGeometry width="50" height="50" relative="1" as="geometry">
            <mxPoint x="394" y="590" as="sourcePoint" />
            <mxPoint x="464" y="590" as="targetPoint" />
          </mxGeometry>
        </mxCell>
        <mxCell id="EwHTVLRrVT_rf0cmMfTu-60" value="" style="html=1;shadow=0;dashed=0;align=center;verticalAlign=middle;shape=mxgraph.arrows2.uTurnArrow;dy=3.12;arrowHead=24.1;dx2=14.49;strokeColor=#000000;strokeWidth=2;fillColor=#FFFFFF;rotation=125;" parent="1" vertex="1">
          <mxGeometry x="498" y="399.5" width="14" height="66.5" as="geometry" />
        </mxCell>
        <mxCell id="EwHTVLRrVT_rf0cmMfTu-67" value="&lt;font face=&quot;Times New Roman&quot; size=&quot;1&quot;&gt;&lt;i style=&quot;font-size: 28px&quot;&gt;n&lt;/i&gt;&lt;/font&gt;" style="text;html=1;strokeColor=none;fillColor=none;align=center;verticalAlign=middle;whiteSpace=wrap;rounded=0;dashed=1;" parent="1" vertex="1">
          <mxGeometry x="521" y="466" width="40" height="20" as="geometry" />
        </mxCell>
        <mxCell id="EwHTVLRrVT_rf0cmMfTu-74" value="" style="endArrow=oval;html=1;strokeWidth=3;endFill=1;endSize=10;exitX=0;exitY=0.5;exitDx=0;exitDy=0;rounded=0;" parent="1" source="EwHTVLRrVT_rf0cmMfTu-27" edge="1">
          <mxGeometry width="50" height="50" relative="1" as="geometry">
            <mxPoint x="400" y="340" as="sourcePoint" />
            <mxPoint x="200" y="340" as="targetPoint" />
            <Array as="points">
              <mxPoint x="400" y="340" />
            </Array>
          </mxGeometry>
        </mxCell>
        <mxCell id="EwHTVLRrVT_rf0cmMfTu-27" value="" style="rounded=0;whiteSpace=wrap;html=1;strokeColor=#000000;strokeWidth=3;fillColor=#000000;rotation=90;" parent="1" vertex="1">
          <mxGeometry x="334" y="481" width="130" height="40" as="geometry" />
        </mxCell>
        <mxCell id="EwHTVLRrVT_rf0cmMfTu-28" value="" style="ellipse;whiteSpace=wrap;html=1;aspect=fixed;strokeColor=#000000;strokeWidth=3;fillColor=#FFFFFF;" parent="1" vertex="1">
          <mxGeometry x="342.5" y="445" width="114" height="114" as="geometry" />
        </mxCell>
        <mxCell id="EwHTVLRrVT_rf0cmMfTu-29" value="M" style="text;html=1;strokeColor=none;fillColor=none;align=center;verticalAlign=middle;whiteSpace=wrap;rounded=0;fontSize=45;" parent="1" vertex="1">
          <mxGeometry x="379.5" y="481" width="40" height="20" as="geometry" />
        </mxCell>
        <mxCell id="EwHTVLRrVT_rf0cmMfTu-32" value="" style="group" parent="1" vertex="1" connectable="0">
          <mxGeometry x="373.5" y="521" width="52" height="10" as="geometry" />
        </mxCell>
        <mxCell id="EwHTVLRrVT_rf0cmMfTu-30" value="" style="endArrow=none;dashed=1;html=1;strokeWidth=3;" parent="EwHTVLRrVT_rf0cmMfTu-32" edge="1">
          <mxGeometry width="50" height="50" relative="1" as="geometry">
            <mxPoint x="2" y="10" as="sourcePoint" />
            <mxPoint x="52" y="10" as="targetPoint" />
          </mxGeometry>
        </mxCell>
        <mxCell id="EwHTVLRrVT_rf0cmMfTu-31" value="" style="endArrow=none;html=1;strokeWidth=3;" parent="EwHTVLRrVT_rf0cmMfTu-32" edge="1">
          <mxGeometry width="50" height="50" relative="1" as="geometry">
            <mxPoint as="sourcePoint" />
            <mxPoint x="50" as="targetPoint" />
          </mxGeometry>
        </mxCell>
        <mxCell id="arvUL8lsrQ8Z9jREooVD-2" style="edgeStyle=orthogonalEdgeStyle;rounded=0;orthogonalLoop=1;jettySize=auto;html=1;endArrow=oval;endFill=1;endSize=10;strokeWidth=3;exitX=0.012;exitY=0.642;exitDx=0;exitDy=0;exitPerimeter=0;" parent="1" source="EwHTVLRrVT_rf0cmMfTu-11" edge="1">
          <mxGeometry relative="1" as="geometry">
            <mxPoint x="398" y="802" as="targetPoint" />
            <mxPoint x="397.8399999999999" y="787.8599999999999" as="sourcePoint" />
          </mxGeometry>
        </mxCell>
        <mxCell id="arvUL8lsrQ8Z9jREooVD-24" value="" style="endArrow=blockThin;html=1;rounded=0;fontFamily=Times New Roman;fontSize=28;strokeWidth=3;endFill=1;strokeColor=#0000FF;" parent="1" edge="1">
          <mxGeometry width="50" height="50" relative="1" as="geometry">
            <mxPoint x="348.40999999999997" y="695" as="sourcePoint" />
            <mxPoint x="348.40999999999997" y="751" as="targetPoint" />
          </mxGeometry>
        </mxCell>
        <mxCell id="arvUL8lsrQ8Z9jREooVD-27" value="&lt;font color=&quot;#0000ff&quot;&gt;&lt;i&gt;I&lt;sub&gt;s&lt;/sub&gt;&lt;/i&gt;&lt;/font&gt;" style="edgeLabel;html=1;align=center;verticalAlign=middle;resizable=0;points=[];fontSize=28;fontFamily=Times New Roman;" parent="arvUL8lsrQ8Z9jREooVD-24" vertex="1" connectable="0">
          <mxGeometry x="-0.3296" relative="1" as="geometry">
            <mxPoint x="16" y="-1" as="offset" />
          </mxGeometry>
        </mxCell>
        <mxCell id="arvUL8lsrQ8Z9jREooVD-22" value="" style="endArrow=blockThin;html=1;rounded=0;fontFamily=Times New Roman;fontSize=28;strokeWidth=3;endFill=1;strokeColor=#0000FF;" parent="1" edge="1">
          <mxGeometry width="50" height="50" relative="1" as="geometry">
            <mxPoint x="279.5" y="330" as="sourcePoint" />
            <mxPoint x="342.5" y="330" as="targetPoint" />
          </mxGeometry>
        </mxCell>
        <mxCell id="arvUL8lsrQ8Z9jREooVD-28" value="&lt;i&gt;I&lt;/i&gt;" style="edgeLabel;html=1;align=center;verticalAlign=middle;resizable=0;points=[];fontSize=28;fontFamily=Times New Roman;fontColor=#0000FF;" parent="arvUL8lsrQ8Z9jREooVD-22" vertex="1" connectable="0">
          <mxGeometry x="0.2582" y="3" relative="1" as="geometry">
            <mxPoint x="-6" y="-18" as="offset" />
          </mxGeometry>
        </mxCell>
        <mxCell id="arvUL8lsrQ8Z9jREooVD-32" value="" style="endArrow=oval;html=1;strokeWidth=3;endFill=1;endSize=10;rounded=0;" parent="1" edge="1">
          <mxGeometry width="50" height="50" relative="1" as="geometry">
            <mxPoint x="400" y="802" as="sourcePoint" />
            <mxPoint x="200" y="802" as="targetPoint" />
            <Array as="points">
              <mxPoint x="260" y="802" />
            </Array>
          </mxGeometry>
        </mxCell>
        <mxCell id="arvUL8lsrQ8Z9jREooVD-36" value="&lt;font style=&quot;font-size: 28px&quot; face=&quot;Times New Roman&quot;&gt;&lt;i&gt;R&lt;sub&gt;cs&lt;/sub&gt;&lt;/i&gt;&lt;/font&gt;" style="text;html=1;strokeColor=none;fillColor=none;align=center;verticalAlign=middle;whiteSpace=wrap;rounded=0;dashed=1;" parent="1" vertex="1">
          <mxGeometry x="549" y="720" width="70" height="20" as="geometry" />
        </mxCell>
        <mxCell id="a0kRVQ_6KHBx3ldC4yZE-1" value="" style="pointerEvents=1;verticalLabelPosition=bottom;shadow=0;dashed=0;align=center;html=1;verticalAlign=top;shape=mxgraph.electrical.resistors.variable_resistor_2;fontSize=45;strokeWidth=3;rotation=-90;flipV=1;" parent="1" vertex="1">
          <mxGeometry x="469" y="695" width="100" height="60" as="geometry" />
        </mxCell>
        <mxCell id="a0kRVQ_6KHBx3ldC4yZE-2" style="edgeStyle=orthogonalEdgeStyle;rounded=0;orthogonalLoop=1;jettySize=auto;html=1;endArrow=oval;endFill=1;endSize=10;strokeWidth=3;exitX=1;exitY=0.5;exitDx=0;exitDy=0;exitPerimeter=0;" parent="1" source="a0kRVQ_6KHBx3ldC4yZE-1" edge="1">
          <mxGeometry relative="1" as="geometry">
            <mxPoint x="398" y="650" as="targetPoint" />
            <mxPoint x="456.1500000000001" y="634" as="sourcePoint" />
            <Array as="points">
              <mxPoint x="519" y="650" />
              <mxPoint x="398" y="650" />
            </Array>
          </mxGeometry>
        </mxCell>
        <mxCell id="a0kRVQ_6KHBx3ldC4yZE-4" value="" style="endArrow=none;html=1;strokeWidth=3;exitX=0.026;exitY=0.5;exitDx=0;exitDy=0;exitPerimeter=0;rounded=0;" parent="1" source="a0kRVQ_6KHBx3ldC4yZE-1" edge="1">
          <mxGeometry width="50" height="50" relative="1" as="geometry">
            <mxPoint x="519" y="777" as="sourcePoint" />
            <mxPoint x="400" y="802" as="targetPoint" />
            <Array as="points">
              <mxPoint x="519" y="802" />
            </Array>
          </mxGeometry>
        </mxCell>
        <mxCell id="arvUL8lsrQ8Z9jREooVD-23" value="" style="endArrow=blockThin;html=1;rounded=0;fontFamily=Times New Roman;fontSize=28;strokeWidth=3;endFill=1;strokeColor=#0000FF;" parent="1" edge="1">
          <mxGeometry width="50" height="50" relative="1" as="geometry">
            <mxPoint x="438" y="640" as="sourcePoint" />
            <mxPoint x="498" y="640" as="targetPoint" />
          </mxGeometry>
        </mxCell>
        <mxCell id="arvUL8lsrQ8Z9jREooVD-29" value="&lt;i&gt;I-I&lt;sub&gt;s&lt;/sub&gt;&lt;/i&gt;" style="edgeLabel;html=1;align=center;verticalAlign=middle;resizable=0;points=[];fontSize=28;fontFamily=Times New Roman;fontColor=#0000FF;" parent="arvUL8lsrQ8Z9jREooVD-23" vertex="1" connectable="0">
          <mxGeometry x="0.4284" y="-2" relative="1" as="geometry">
            <mxPoint x="-16" y="-24" as="offset" />
          </mxGeometry>
        </mxCell>
        <mxCell id="a0kRVQ_6KHBx3ldC4yZE-6" value="&lt;font style=&quot;font-size: 28px&quot; face=&quot;Times New Roman&quot;&gt;&lt;i&gt;R&lt;sub&gt;s&lt;/sub&gt;&lt;/i&gt;&lt;/font&gt;" style="text;html=1;strokeColor=none;fillColor=none;align=center;verticalAlign=middle;whiteSpace=wrap;rounded=0;dashed=1;" parent="1" vertex="1">
          <mxGeometry x="400" y="720" width="70" height="20" as="geometry" />
        </mxCell>
        <mxCell id="a0kRVQ_6KHBx3ldC4yZE-9" value="&lt;font style=&quot;font-size: 24px&quot; face=&quot;Verdana&quot;&gt;(+)&lt;/font&gt;" style="text;html=1;strokeColor=none;fillColor=none;align=center;verticalAlign=middle;whiteSpace=wrap;rounded=0;dashed=1;" parent="1" vertex="1">
          <mxGeometry x="180" y="350" width="40" height="20" as="geometry" />
        </mxCell>
        <mxCell id="a0kRVQ_6KHBx3ldC4yZE-10" value="&lt;font style=&quot;font-size: 24px&quot; face=&quot;Verdana&quot;&gt;(-)&lt;/font&gt;&lt;span style=&quot;font-family: &amp;quot;verdana&amp;quot; ; font-size: 24px&quot;&gt; &lt;br&gt;&lt;/span&gt;" style="text;html=1;strokeColor=none;fillColor=none;align=center;verticalAlign=middle;whiteSpace=wrap;rounded=0;dashed=1;" parent="1" vertex="1">
          <mxGeometry x="175" y="755" width="50" height="45.5" as="geometry" />
        </mxCell>
        <mxCell id="a0kRVQ_6KHBx3ldC4yZE-12" value="&lt;font face=&quot;Times New Roman&quot;&gt;&lt;i&gt;&lt;font style=&quot;font-size: 28px;&quot;&gt;T&lt;sub&gt;u&lt;/sub&gt;&lt;/font&gt;&lt;/i&gt;&lt;/font&gt;" style="text;html=1;strokeColor=none;fillColor=none;align=center;verticalAlign=middle;whiteSpace=wrap;rounded=0;dashed=1;" parent="1" vertex="1">
          <mxGeometry x="556" y="440" width="40" height="20" as="geometry" />
        </mxCell>
        <mxCell id="a0kRVQ_6KHBx3ldC4yZE-13" value="U=250V" style="edgeLabel;html=1;align=center;verticalAlign=middle;resizable=0;points=[];fontSize=28;fontFamily=Times New Roman;fontColor=#0000FF;" parent="1" vertex="1" connectable="0">
          <mxGeometry x="200" y="585" as="geometry">
            <mxPoint y="-21" as="offset" />
          </mxGeometry>
        </mxCell>
        <mxCell id="bfzl_eTBkezoHsurhtVT-2" value="" style="html=1;shadow=0;dashed=0;align=center;verticalAlign=middle;shape=mxgraph.arrows2.uTurnArrow;dy=3.12;arrowHead=24.1;dx2=14.49;strokeColor=#000000;strokeWidth=2;fillColor=#FFFFFF;rotation=125;" vertex="1" parent="1">
          <mxGeometry x="533" y="373.5" width="14" height="66.5" as="geometry" />
        </mxCell>
      </root>
    </mxGraphModel>
  </diagram>
</mxfile>
